<svg width="61" height="82" viewBox="0 0 61 82" fill="none" xmlns="http://www.w3.org/2000/svg">
<path d="M-5.59927e-05 81.8812V80.7534L1.35335 80.3023C4.13536 79.5504 5.52636 77.7458 5.52636 74.8886V13.5341C5.52636 11.8799 5.22561 10.6393 4.62409 9.81222C4.09776 8.98514 3.08271 8.42122 1.57892 8.12046L-5.59927e-05 7.78211V6.65427L19.1732 0.11279L20.3011 1.24063L21.3161 4.73694C23.7974 3.23315 26.5418 2.06771 29.5494 1.24063C32.6321 0.41355 35.7901 7.68486e-06 39.0232 7.68486e-06C45.4895 7.68486e-06 50.6024 2.48126 54.3619 7.44376C58.1965 12.3311 60.1139 19.3613 60.1139 28.5344C60.1139 37.5571 58.0085 44.6625 53.7979 49.8506C49.6625 55.0386 43.7978 57.6327 36.2036 57.6327C30.2637 57.6327 25.2636 56.768 21.2033 55.0386V74.5503C21.2033 77.5578 22.5568 79.4376 25.2636 80.1895L27.4065 80.7534V81.8812H-5.59927e-05ZM30.79 54.3619C34.5495 54.3619 37.5194 52.407 39.6999 48.4972C41.9556 44.5873 43.0835 38.0834 43.0835 28.9855C43.0835 19.8876 42.0308 13.5341 39.9255 9.925C37.8202 6.24073 34.775 4.39859 30.79 4.39859C28.008 4.39859 24.9252 5.30086 21.5417 7.1054V52.5574C24.3989 53.7604 27.4817 54.3619 30.79 54.3619Z" fill="#F3DDC5"/>
</svg>
