<svg width="39" height="39" viewBox="0 0 39 39" fill="none" xmlns="http://www.w3.org/2000/svg">
<path d="M3.22222 38.6667C1.44264 38.6667 0 37.224 0 35.4444C0 33.6649 1.44264 32.2222 3.22222 32.2222H35.4444C37.224 32.2222 38.6667 33.6649 38.6667 35.4444C38.6667 37.224 37.224 38.6667 35.4444 38.6667H3.22222ZM3.22222 22.5556C1.44264 22.5556 0 21.1129 0 19.3333C0 17.5537 1.44264 16.1111 3.22222 16.1111H35.4444C37.224 16.1111 38.6667 17.5537 38.6667 19.3333C38.6667 21.1129 37.224 22.5556 35.4444 22.5556H3.22222ZM3.22222 6.44444C1.44264 6.44444 0 5.00181 0 3.22222C0 1.44264 1.44264 0 3.22222 0H35.4444C37.224 0 38.6667 1.44264 38.6667 3.22222C38.6667 5.00181 37.224 6.44444 35.4444 6.44444H3.22222Z" fill="#B8AE59"/>
</svg>
